#Comment line ignore any data following # character 
#Hierarchical Translation and Rotation (.htr) file 
[Header]	
#Header keywords are followed by a single value 
FileType HTR		#Single word string
DataType HTRS		#Translation followed by rotation and scale data
FileVersion 1		#integer
NumSegments 84		#integer
NumFrames 2		#integer
DataFrameRate 30		#integer, data frame rate in this file
EulerRotationOrder ZYX
CalibrationUnits mm
RotationUnits Degrees
GlobalAxisofGravity Y
BoneLengthAxis Y
ScaleFactor 1.00
[SegmentNames&Hierarchy]
#CHILD	PARENT
MASTER GLOBAL
root MASTER
chest root
L_mid_tent01 root
R_mid_tent01 root
spine01 root
Bip01_Neck chest
L_humerus chest
R_humerus chest
weapon_bone chest
Bip01_Head Bip01_Neck
eye_left_bone Bip01_Head
eye_right_bone Bip01_Head
L_forearm L_humerus
L_front_hand L_forearm
L_weapon_bone L_forearm
L_front_hand01_01 L_front_hand
L_front_hand02_01 L_front_hand
L_front_hand03_01 L_front_hand
L_front_hand01_02 L_front_hand01_01
L_front_hand02_02 L_front_hand02_01
L_front_hand03_02 L_front_hand03_01
R_forearm R_humerus
R_front_hand R_forearm
R_weapon_bone R_forearm
R_front_hand01_01 R_front_hand
R_front_hand02_01 R_front_hand
R_front_hand03_01 R_front_hand
R_front_hand01_02 R_front_hand01_01
R_front_hand02_02 R_front_hand02_01
R_front_hand03_02 R_front_hand03_01
null_rope01_connect L_mid_tent01
Rope1_Seg01 null_rope01_connect
Rope1_Seg02 Rope1_Seg01
Rope1_Seg03 Rope1_Seg02
Rope1_Seg04 Rope1_Seg03
Rope1_Seg05 Rope1_Seg04
Rope1_Seg06 Rope1_Seg05
Rope1_Seg07 Rope1_Seg06
Rope1_Seg09 Rope1_Seg07
L_mid_hand01 Rope1_Seg09
L_mid_hand02 Rope1_Seg09
L_mid_hand03 Rope1_Seg09
null_rope02_connect R_mid_tent01
Rope2_Seg01 null_rope02_connect
Rope2_Seg02 Rope2_Seg01
Rope2_Seg03 Rope2_Seg02
Rope2_Seg04 Rope2_Seg03
Rope2_Seg05 Rope2_Seg04
Rope2_Seg06 Rope2_Seg05
Rope2_Seg07 Rope2_Seg06
Rope2_Seg09 Rope2_Seg07
R_mid_hand01 Rope2_Seg09
R_mid_hand02 Rope2_Seg09
R_mid_hand03 Rope2_Seg09
spine02 spine01
spine03 spine02
pelvis spine03
null_rope03_connect pelvis
null_rope04_connect pelvis
Rope3_Seg01 null_rope03_connect
Rope3_Seg02 Rope3_Seg01
Rope3_Seg03 Rope3_Seg02
Rope3_Seg04 Rope3_Seg03
Rope3_Seg05 Rope3_Seg04
Rope3_Seg06 Rope3_Seg05
Rope3_Seg07 Rope3_Seg06
Rope3_Seg08 Rope3_Seg07
Rope3_Seg09 Rope3_Seg08
R_rear_hand01 Rope3_Seg09
R_rear_hand02 Rope3_Seg09
R_rear_hand03 Rope3_Seg09
Rope4_Seg01 null_rope04_connect
Rope4_Seg02 Rope4_Seg01
Rope4_Seg03 Rope4_Seg02
Rope4_Seg04 Rope4_Seg03
Rope4_Seg05 Rope4_Seg04
Rope4_Seg06 Rope4_Seg05
Rope4_Seg07 Rope4_Seg06
Rope4_Seg08 Rope4_Seg07
Rope4_Seg09 Rope4_Seg08
L_rear_hand01 Rope4_Seg09
L_rear_hand02 Rope4_Seg09
L_rear_hand03 Rope4_Seg09
[BasePosition]
#SegmentName Tx, Ty, Tz, Rx, Ry, Rz, BoneLength
MASTER 0.000000 0.000000 0.000000 -90.000000 0.000000 0.000000 10.000000 
root 0.000000 0.000000 0.000000 0.000000 0.000000 0.000000 10.000000 
chest 0.000000 0.000000 0.000000 0.000000 0.000000 0.000000 10.000000 
L_mid_tent01 0.000000 0.000000 0.000000 0.000000 0.000000 0.000000 10.000000 
R_mid_tent01 0.000000 0.000000 0.000000 0.000000 0.000000 0.000000 10.000000 
spine01 0.000000 0.000000 0.000000 0.000000 0.000000 0.000000 10.000000 
Bip01_Neck 0.000000 0.000000 0.000000 0.000000 0.000000 0.000000 10.000000 
L_humerus 0.000000 0.000000 0.000000 0.000000 0.000000 0.000000 10.000000 
R_humerus 0.000000 0.000000 0.000000 0.000000 0.000000 0.000000 10.000000 
weapon_bone 0.000000 0.000000 0.000000 0.000000 0.000000 0.000000 10.000000 
Bip01_Head 0.000000 0.000000 0.000000 0.000000 0.000000 0.000000 10.000000 
eye_left_bone 0.000000 0.000000 0.000000 0.000000 0.000000 0.000000 10.000000 
eye_right_bone 0.000000 0.000000 0.000000 0.000000 0.000000 0.000000 10.000000 
L_forearm 0.000000 0.000000 0.000000 0.000000 0.000000 0.000000 10.000000 
L_front_hand 0.000000 0.000000 0.000000 0.000000 0.000000 0.000000 10.000000 
L_weapon_bone 0.000000 0.000000 0.000000 0.000000 0.000000 0.000000 10.000000 
L_front_hand01_01 0.000000 0.000000 0.000000 0.000000 0.000000 0.000000 10.000000 
L_front_hand02_01 0.000000 0.000000 0.000000 0.000000 0.000000 0.000000 10.000000 
L_front_hand03_01 0.000000 0.000000 0.000000 0.000000 0.000000 0.000000 10.000000 
L_front_hand01_02 0.000000 0.000000 0.000000 0.000000 0.000000 0.000000 10.000000 
L_front_hand02_02 0.000000 0.000000 0.000000 0.000000 0.000000 0.000000 10.000000 
L_front_hand03_02 0.000000 0.000000 0.000000 0.000000 0.000000 0.000000 10.000000 
R_forearm 0.000000 0.000000 0.000000 0.000000 0.000000 0.000000 10.000000 
R_front_hand 0.000000 0.000000 0.000000 0.000000 0.000000 0.000000 10.000000 
R_weapon_bone 0.000000 0.000000 0.000000 0.000000 0.000000 0.000000 10.000000 
R_front_hand01_01 0.000000 0.000000 0.000000 0.000000 0.000000 0.000000 10.000000 
R_front_hand02_01 0.000000 0.000000 0.000000 0.000000 0.000000 0.000000 10.000000 
R_front_hand03_01 0.000000 0.000000 0.000000 0.000000 0.000000 0.000000 10.000000 
R_front_hand01_02 0.000000 0.000000 0.000000 0.000000 0.000000 0.000000 10.000000 
R_front_hand02_02 0.000000 0.000000 0.000000 0.000000 0.000000 0.000000 10.000000 
R_front_hand03_02 0.000000 0.000000 0.000000 0.000000 0.000000 0.000000 10.000000 
null_rope01_connect 0.000000 0.000000 0.000000 0.000000 0.000000 0.000000 10.000000 
Rope1_Seg01 0.000000 0.000000 0.000000 0.000000 0.000000 0.000000 10.000000 
Rope1_Seg02 0.000000 0.000000 0.000000 0.000000 0.000000 0.000000 10.000000 
Rope1_Seg03 0.000000 0.000000 0.000000 0.000000 0.000000 0.000000 10.000000 
Rope1_Seg04 0.000000 0.000000 0.000000 0.000000 0.000000 0.000000 10.000000 
Rope1_Seg05 0.000000 0.000000 0.000000 0.000000 0.000000 0.000000 10.000000 
Rope1_Seg06 0.000000 0.000000 0.000000 0.000000 0.000000 0.000000 10.000000 
Rope1_Seg07 0.000000 0.000000 0.000000 0.000000 0.000000 0.000000 10.000000 
Rope1_Seg09 0.000000 0.000000 0.000000 0.000000 0.000000 0.000000 10.000000 
L_mid_hand01 0.000000 0.000000 0.000000 0.000000 0.000000 0.000000 10.000000 
L_mid_hand02 0.000000 0.000000 0.000000 0.000000 0.000000 0.000000 10.000000 
L_mid_hand03 0.000000 0.000000 0.000000 0.000000 0.000000 0.000000 10.000000 
null_rope02_connect 0.000000 0.000000 0.000000 0.000000 0.000000 0.000000 10.000000 
Rope2_Seg01 0.000000 0.000000 0.000000 0.000000 0.000000 0.000000 10.000000 
Rope2_Seg02 0.000000 0.000000 0.000000 0.000000 0.000000 0.000000 10.000000 
Rope2_Seg03 0.000000 0.000000 0.000000 0.000000 0.000000 0.000000 10.000000 
Rope2_Seg04 0.000000 0.000000 0.000000 0.000000 0.000000 0.000000 10.000000 
Rope2_Seg05 0.000000 0.000000 0.000000 0.000000 0.000000 0.000000 10.000000 
Rope2_Seg06 0.000000 0.000000 0.000000 0.000000 0.000000 0.000000 10.000000 
Rope2_Seg07 0.000000 0.000000 0.000000 0.000000 0.000000 0.000000 10.000000 
Rope2_Seg09 0.000000 0.000000 0.000000 0.000000 0.000000 0.000000 10.000000 
R_mid_hand01 0.000000 0.000000 0.000000 0.000000 0.000000 0.000000 10.000000 
R_mid_hand02 0.000000 0.000000 0.000000 0.000000 0.000000 0.000000 10.000000 
R_mid_hand03 0.000000 0.000000 0.000000 0.000000 0.000000 0.000000 10.000000 
spine02 0.000000 0.000000 0.000000 0.000000 0.000000 0.000000 10.000000 
spine03 0.000000 0.000000 0.000000 0.000000 0.000000 0.000000 10.000000 
pelvis 0.000000 0.000000 0.000000 0.000000 0.000000 0.000000 10.000000 
null_rope03_connect 0.000000 0.000000 0.000000 0.000000 0.000000 0.000000 10.000000 
null_rope04_connect 0.000000 0.000000 0.000000 0.000000 0.000000 0.000000 10.000000 
Rope3_Seg01 0.000000 0.000000 0.000000 0.000000 0.000000 0.000000 10.000000 
Rope3_Seg02 0.000000 0.000000 0.000000 0.000000 0.000000 0.000000 10.000000 
Rope3_Seg03 0.000000 0.000000 0.000000 0.000000 0.000000 0.000000 10.000000 
Rope3_Seg04 0.000000 0.000000 0.000000 0.000000 0.000000 0.000000 10.000000 
Rope3_Seg05 0.000000 0.000000 0.000000 0.000000 0.000000 0.000000 10.000000 
Rope3_Seg06 0.000000 0.000000 0.000000 0.000000 0.000000 0.000000 10.000000 
Rope3_Seg07 0.000000 0.000000 0.000000 0.000000 0.000000 0.000000 10.000000 
Rope3_Seg08 0.000000 0.000000 0.000000 0.000000 0.000000 0.000000 10.000000 
Rope3_Seg09 0.000000 0.000000 0.000000 0.000000 0.000000 0.000000 10.000000 
R_rear_hand01 0.000000 0.000000 0.000000 0.000000 0.000000 0.000000 10.000000 
R_rear_hand02 0.000000 0.000000 0.000000 0.000000 0.000000 0.000000 10.000000 
R_rear_hand03 0.000000 0.000000 0.000000 0.000000 0.000000 0.000000 10.000000 
Rope4_Seg01 0.000000 0.000000 0.000000 0.000000 0.000000 0.000000 10.000000 
Rope4_Seg02 0.000000 0.000000 0.000000 0.000000 0.000000 0.000000 10.000000 
Rope4_Seg03 0.000000 0.000000 0.000000 0.000000 0.000000 0.000000 10.000000 
Rope4_Seg04 0.000000 0.000000 0.000000 0.000000 0.000000 0.000000 10.000000 
Rope4_Seg05 0.000000 0.000000 0.000000 0.000000 0.000000 0.000000 10.000000 
Rope4_Seg06 0.000000 0.000000 0.000000 0.000000 0.000000 0.000000 10.000000 
Rope4_Seg07 0.000000 0.000000 0.000000 0.000000 0.000000 0.000000 10.000000 
Rope4_Seg08 0.000000 0.000000 0.000000 0.000000 0.000000 0.000000 10.000000 
Rope4_Seg09 0.000000 0.000000 0.000000 0.000000 0.000000 0.000000 10.000000 
L_rear_hand01 0.000000 0.000000 0.000000 0.000000 0.000000 0.000000 10.000000 
L_rear_hand02 0.000000 0.000000 0.000000 0.000000 0.000000 0.000000 10.000000 
L_rear_hand03 0.000000 0.000000 0.000000 0.000000 0.000000 0.000000 10.000000 
#Beginning of Data. Separated by tabs
#Fr	Tx	Ty	Tz	Rx	Ry	Rz	SF
[MASTER]
8 -0.000179 1255.775146 2082.775146 0.001660 0.001660 0.001660 2432.061523
9 -0.000220 1526.571533 2254.414307 0.001660 0.001660 0.001660 2722.646484
[root]
8 -41.728577 23.948223 1678.590088 -61.475998 -12.682182 -90.584579 1679.279419
9 -48.467335 47.127380 1681.186157 -61.475998 -12.682182 -90.584579 1682.544800
[chest]
8 -84.512650 -34.090519 0.000000 6.637066 -1.327086 160.481598 91.129311
9 -84.512650 -34.090519 0.000000 6.546520 -1.029228 158.094116 91.129311
[L_mid_tent01]
8 27.299442 22.177832 -249.918167 -7.024742 37.210613 52.913433 252.381073
9 27.299435 22.177891 -249.918198 -6.949752 40.607697 51.050533 252.381104
[R_mid_tent01]
8 23.228794 24.509907 226.238495 -92.843361 -24.025167 1.531450 228.744751
9 23.228794 24.509907 226.238495 -90.439552 -21.582518 -3.010329 228.744751
[spine01]
8 -0.361383 -0.195265 0.000000 0.668601 0.281276 18.244987 0.410763
9 -0.361383 -0.195265 0.000000 0.651886 0.271991 18.376289 0.410763
[Bip01_Neck]
8 165.484543 71.581718 0.000119 175.896118 1.177290 24.871185 180.302734
9 165.484543 71.581718 0.000119 175.896118 1.177290 24.871183 180.302734
[L_humerus]
8 -13.983130 -135.272980 -120.471481 -171.850067 81.428154 -81.756363 181.680161
9 -13.983130 -135.272980 -120.471481 -170.652512 82.338631 -80.560097 181.680161
[R_humerus]
8 -13.983309 -135.273102 125.287651 -93.750084 -50.745258 -167.973465 184.909012
9 -13.983309 -135.273102 125.287651 -88.386589 -46.959942 -171.157013 184.909012
[weapon_bone]
8 235.964890 -300.705902 0.000000 0.000000 -89.951546 -128.212341 382.234833
9 235.964890 -300.705902 0.000000 0.000000 -89.951546 -128.212341 382.234833
[Bip01_Head]
8 249.237457 152.737228 -8.134004 6.605269 5.844703 -62.453945 292.428009
9 248.330673 156.013092 -8.316193 7.337811 5.844473 -62.455208 293.389435
[eye_left_bone]
8 -24.626970 125.451866 -64.772606 0.000000 -90.000000 -99.840431 143.318359
9 -24.626970 125.451866 -64.772606 0.000000 -90.000000 -99.840431 143.318359
[eye_right_bone]
8 -24.626970 125.451866 64.327362 0.000000 -89.972023 80.159386 143.117676
9 -24.626970 125.451866 64.327362 0.000000 -89.972023 80.159393 143.117676
[L_forearm]
8 322.776093 0.000000 -0.000119 0.000215 -0.002337 -100.534317 322.776093
9 322.776093 0.000000 -0.000119 0.000223 -0.002337 -100.879883 322.776093
[L_front_hand]
8 241.149185 -0.042021 -3.300071 -178.667953 -1.835447 -27.422350 241.171753
9 241.149185 -0.042021 -3.300071 -178.667953 -1.835447 -27.422350 241.171753
[L_weapon_bone]
8 156.183838 0.000000 0.000000 0.000014 0.000007 0.000001 156.183838
9 156.183838 0.000000 0.000000 0.000014 0.000007 0.000001 156.183838
[L_front_hand01_01]
8 86.095154 20.947098 -0.655860 -0.366594 -0.477154 75.385574 88.609184
9 86.095154 20.947098 -0.655860 -0.366594 -0.477154 75.385574 88.609184
[L_front_hand02_01]
8 86.935165 -11.437475 24.513514 154.403519 -59.888924 -61.371983 91.046425
9 86.935165 -11.437475 24.513514 154.403519 -59.888931 -61.371990 91.046425
[L_front_hand03_01]
8 86.637497 -14.123976 -20.424902 -153.913879 58.118130 -62.702892 90.126129
9 86.637497 -14.123976 -20.424902 -153.913849 58.118122 -62.702866 90.126129
[L_front_hand01_02]
8 71.020905 -0.000179 0.000030 0.000334 -0.002323 -106.379684 71.020905
9 71.020905 -0.000179 0.000030 0.000334 -0.002323 -106.379684 71.020905
[L_front_hand02_02]
8 71.020927 -0.000119 0.000060 0.000334 -0.002323 -106.379684 71.020927
9 71.020927 -0.000119 0.000060 0.000334 -0.002323 -106.379684 71.020927
[L_front_hand03_02]
8 71.020905 -0.000060 0.000060 0.000334 -0.002323 -106.379684 71.020905
9 71.020905 -0.000060 0.000060 0.000334 -0.002323 -106.379684 71.020905
[R_forearm]
8 322.776428 -0.000060 0.000030 0.204493 0.053536 -105.412750 322.776428
9 322.776428 -0.000060 0.000030 0.206737 0.060121 -106.878975 322.776428
[R_front_hand]
8 238.847015 -0.006795 2.210259 -15.556391 -1.868809 -30.933933 238.857239
9 238.847015 -0.006795 2.210259 -17.589479 -1.745163 -27.471445 238.857239
[R_weapon_bone]
8 155.664093 0.002503 -0.000030 0.003487 0.001180 -90.988930 155.664078
9 155.664093 0.002503 -0.000030 0.003487 0.001180 -90.988914 155.664078
[R_front_hand01_01]
8 87.624611 14.231146 22.918642 -154.633286 -59.950581 61.745811 91.683487
9 87.624611 14.231146 22.918642 -122.121353 -31.679993 18.702341 91.683487
[R_front_hand02_01]
8 89.356956 14.367283 -19.491137 154.602463 58.302822 63.744175 92.579636
9 89.356956 14.367283 -19.491137 123.409935 30.457937 21.397129 92.579636
[R_front_hand03_01]
8 87.286232 -22.307278 -0.143439 0.162154 -0.423168 -75.767784 90.091743
9 87.286232 -22.307278 -0.143439 -0.147797 -0.427427 -35.767502 90.091743
[R_front_hand01_02]
8 71.020905 0.000060 0.000119 0.001889 0.001393 17.197989 71.020905
9 71.020905 0.000060 0.000119 0.001836 0.001466 12.787611 71.020905
[R_front_hand02_02]
8 71.020844 -0.000030 -0.000119 0.001889 0.001393 17.197989 71.020836
9 71.020844 -0.000030 -0.000119 0.001836 0.001466 12.787611 71.020836
[R_front_hand03_02]
8 71.020905 0.000000 0.000030 0.001889 0.001393 17.197989 71.020905
9 71.020905 0.000000 0.000030 0.001836 0.001466 12.787611 71.020905
[null_rope01_connect]
8 328.732483 0.000000 -0.000238 -99.233612 -72.837051 142.631165 328.732483
9 328.732483 0.000000 -0.000238 -102.421799 -69.216278 146.681992 328.732483
[Rope1_Seg01]
8 0.000000 0.000000 0.000000 -168.157608 57.582718 -143.195770 0.000000
9 0.000000 0.000000 0.000000 171.232910 47.569405 -150.552765 0.000000
[Rope1_Seg02]
8 139.999863 -0.000179 0.000000 -1.976449 -16.299198 17.837345 139.999863
9 139.999863 -0.000179 0.000000 4.724265 -24.727219 13.890149 139.999863
[Rope1_Seg03]
8 139.999924 0.000060 -0.000060 -1.935200 -13.933475 15.994738 139.999924
9 139.999924 0.000060 -0.000060 -0.892612 -18.917545 14.482670 139.999924
[Rope1_Seg04]
8 139.999924 -0.000060 -0.000119 -0.721835 -8.552006 9.653739 139.999924
9 139.999924 -0.000060 -0.000119 -0.733567 -10.387862 8.020616 139.999924
[Rope1_Seg05]
8 139.999832 0.000119 -0.000060 -0.612092 -7.196417 6.202848 139.999832
9 139.999832 0.000119 -0.000060 -1.243139 -9.843150 6.481170 139.999832
[Rope1_Seg06]
8 139.999954 0.000119 -0.000060 -1.011118 -7.279257 5.311134 139.999954
9 139.999954 0.000119 -0.000060 -2.230471 -10.354081 6.241331 139.999954
[Rope1_Seg07]
8 139.999985 0.000060 0.000000 -0.744446 -5.007296 3.921110 139.999985
9 139.999985 0.000060 0.000000 -1.763399 -6.456382 3.787642 139.999985
[Rope1_Seg09]
8 121.602913 0.000119 -0.000089 -89.793175 -1.359789 0.847147 121.602913
9 121.602913 0.000119 -0.000089 -89.793175 -1.359789 0.847147 121.602913
[L_mid_hand01]
8 103.859421 1.038730 8.195221 114.520279 -53.310486 -20.623226 104.187431
9 103.859421 1.038730 8.195221 114.520287 -53.310486 -20.623234 104.187431
[L_mid_hand02]
8 105.572853 -4.139662 -10.864139 -155.067673 38.166634 -52.448818 106.211075
9 105.572853 -4.139662 -10.864139 -155.067673 38.166626 -52.448818 106.211075
[L_mid_hand03]
8 104.641464 17.579376 -3.913581 -10.970132 15.317463 57.626957 106.179977
9 104.641464 17.579376 -3.913581 -10.970130 15.317461 57.626949 106.179977
[null_rope02_connect]
8 328.732849 0.000179 -0.000119 -167.459152 -25.800259 -66.379440 328.732849
9 328.732849 0.000179 -0.000119 -163.422897 -27.898851 -70.762711 328.732849
[Rope2_Seg01]
8 -0.000020 0.000008 0.000029 -4.515199 -18.188932 -22.762144 0.000036
9 -0.000018 -0.000012 0.000033 0.333639 -19.982470 -25.886738 0.000039
[Rope2_Seg02]
8 139.999741 -0.000060 -0.000119 -16.216368 6.230741 14.821273 139.999756
9 139.999741 -0.000060 -0.000119 -13.920508 5.186235 12.684604 139.999756
[Rope2_Seg03]
8 140.000107 0.000030 0.000000 -21.610540 2.954054 33.738083 140.000107
9 140.000107 0.000030 0.000000 -21.308601 3.507719 31.611061 140.000107
[Rope2_Seg04]
8 139.999802 0.000000 -0.000060 -9.579116 -9.919147 32.319332 139.999802
9 139.999802 0.000000 -0.000060 -11.524834 -10.634781 37.128399 139.999802
[Rope2_Seg05]
8 139.999985 -0.000060 0.000119 -0.162807 -4.701137 17.049118 139.999985
9 139.999985 -0.000060 0.000119 0.549697 -3.047115 20.379242 139.999985
[Rope2_Seg06]
8 139.999893 -0.000030 -0.000119 1.869724 -1.965751 12.286771 139.999893
9 139.999893 -0.000030 -0.000119 2.541357 0.259358 13.245108 139.999893
[Rope2_Seg07]
8 139.999893 0.000060 -0.000060 1.660293 -1.459514 7.118134 139.999893
9 139.999893 0.000060 -0.000060 1.717969 -0.451709 7.092393 139.999893
[Rope2_Seg09]
8 121.338966 0.000089 -0.000060 77.849152 0.001944 -1.534768 121.338966
9 121.338966 0.000089 -0.000060 80.550323 0.111605 -1.536861 121.338966
[R_mid_hand01]
8 104.680779 11.144459 -10.335981 -47.384258 2.963522 5.452604 105.778534
9 104.680779 11.144459 -10.335981 -47.384258 2.963522 5.452604 105.778534
[R_mid_hand02]
8 104.070427 2.443552 8.231699 75.626297 -2.250001 1.111093 104.424065
9 104.070427 2.443552 8.231699 75.626297 -2.250001 1.111093 104.424065
[R_mid_hand03]
8 106.028137 -11.221827 -5.996406 -164.381912 2.495983 -6.140520 106.788818
9 106.028137 -11.221827 -5.996406 -164.381912 2.495983 -6.140520 106.788818
[spine02]
8 129.756927 0.001550 0.000119 -0.249679 -8.598242 -4.335406 129.756927
9 129.756927 0.001550 0.000119 -0.250993 -9.407525 -4.330981 129.756927
[spine03]
8 78.556969 0.095088 -5.454208 0.628288 4.865714 -0.164704 78.746140
9 78.557068 0.094961 -5.453311 0.672139 4.845539 0.344439 78.746178
[pelvis]
8 169.435242 0.051022 0.000000 -0.050500 -0.499374 4.017751 169.435257
9 169.435242 0.051022 0.000000 -0.051707 -0.493296 4.346375 169.435257
[null_rope03_connect]
8 -1.257226 -2.466202 137.391083 18.732132 -59.546272 67.276527 137.418976
9 -1.257226 -2.466202 137.391083 20.257223 -59.270168 65.006752 137.418976
[null_rope04_connect]
8 -1.259640 -2.480268 -137.844437 18.732132 -59.546272 67.276527 137.872513
9 -1.259640 -2.480268 -137.844437 20.257223 -59.270168 65.006752 137.872513
[Rope3_Seg01]
8 -0.000027 -0.000146 0.000000 -131.855606 -33.604683 -80.317711 0.000149
9 -0.000027 -0.000162 0.000000 -134.060776 -32.546619 -75.745171 0.000164
[Rope3_Seg02]
8 139.999924 -0.000119 0.000060 -1.549459 -2.201137 -16.739477 139.999924
9 139.999924 -0.000119 0.000060 -2.418072 1.398814 -13.012217 139.999924
[Rope3_Seg03]
8 139.999924 -0.000119 0.000119 -26.656246 -4.321127 -46.923241 139.999924
9 139.999924 -0.000119 0.000119 -24.992157 6.030452 -40.959858 139.999924
[Rope3_Seg04]
8 139.999924 0.000119 0.000000 -75.273445 14.114861 -36.809258 139.999924
9 139.999924 0.000119 0.000000 -62.597549 22.779539 -43.661598 139.999924
[Rope3_Seg05]
8 139.999924 -0.000238 0.000060 -23.574312 41.960052 3.520266 139.999924
9 139.999924 -0.000238 0.000060 -25.650961 45.137428 -7.877316 139.999924
[Rope3_Seg06]
8 139.999893 -0.000119 -0.000060 -0.736666 15.603067 8.845473 139.999893
9 139.999893 -0.000119 -0.000060 -0.834751 14.128557 3.791203 139.999893
[Rope3_Seg07]
8 139.999771 0.000060 -0.000119 0.400111 5.469488 3.259383 139.999771
9 139.999771 0.000060 -0.000119 0.423239 5.220946 1.535964 139.999771
[Rope3_Seg08]
8 139.999985 -0.000060 0.000000 0.545136 2.749279 1.617673 139.999985
9 139.999985 -0.000060 0.000000 0.573139 2.634247 0.756903 139.999985
[Rope3_Seg09]
8 90.185997 -0.000179 -0.000060 80.357864 -1.359822 -0.848305 90.185997
9 90.185997 -0.000179 -0.000060 78.305756 -1.359675 -0.849823 90.185997
[R_rear_hand01]
8 103.366196 -6.073594 -10.757982 -165.486237 20.162525 -42.491131 104.101845
9 103.366196 -6.073594 -10.757982 -169.737930 22.551676 -54.126614 104.101845
[R_rear_hand02]
8 100.509819 12.039542 -7.992327 -29.942976 25.833334 40.126621 101.543350
9 100.509819 12.039542 -7.992327 -24.598206 30.936132 51.337250 101.543350
[R_rear_hand03]
8 101.539970 5.215704 5.435467 82.198990 -43.108894 9.209250 101.819031
9 101.539970 5.215704 5.435467 80.282906 -54.075901 11.757576 101.819031
[Rope4_Seg01]
8 -0.000015 -0.000177 -0.000153 34.565193 1.913834 -156.132584 0.000234
9 -0.000015 -0.000192 -0.000153 47.901733 -9.751069 -159.740631 0.000246
[Rope4_Seg02]
8 139.999985 0.000060 0.000119 -31.892311 5.706840 -24.779612 139.999985
9 139.999985 0.000060 0.000119 -33.876904 -1.985872 -19.549004 139.999985
[Rope4_Seg03]
8 139.999924 0.000000 -0.000238 -26.949295 21.002893 -21.333021 139.999924
9 139.999924 0.000000 -0.000238 -49.177200 15.909232 -28.943638 139.999924
[Rope4_Seg04]
8 139.999985 0.000000 0.000119 -6.125896 15.412966 -4.807072 139.999985
9 139.999985 0.000000 0.000119 -10.334502 23.878929 -3.884258 139.999985
[Rope4_Seg05]
8 139.999802 -0.000060 -0.000119 -4.353281 12.437587 -7.242640 139.999802
9 139.999802 -0.000060 -0.000119 -5.432151 15.424820 -6.337646 139.999802
[Rope4_Seg06]
8 139.999924 0.000000 0.000060 -4.586442 18.699236 -13.193296 139.999924
9 139.999924 0.000000 0.000060 -5.162942 20.491436 -12.689524 139.999924
[Rope4_Seg07]
8 139.999802 0.000000 0.000000 -0.158593 14.861592 -8.690695 139.999802
9 139.999802 0.000000 0.000000 0.023201 15.321380 -7.190845 139.999802
[Rope4_Seg08]
8 139.999924 0.000000 0.000119 -0.382446 7.669246 -4.322529 139.999924
9 139.999924 0.000000 0.000119 -0.365393 7.591536 -3.289412 139.999924
[Rope4_Seg09]
8 90.185791 0.000060 0.000060 -135.617828 2.228885 0.850567 90.185791
9 90.185791 0.000060 0.000060 -135.617828 2.228885 0.850567 90.185791
[L_rear_hand01]
8 101.696655 -8.392275 -7.654577 -19.915018 -33.950901 119.950104 102.329041
9 101.696655 -8.392275 -7.654577 -19.915020 -33.950905 119.950104 102.329041
[L_rear_hand02]
8 102.726799 -1.568258 5.773216 77.862244 61.878525 165.399200 102.900848
9 102.726799 -1.568258 5.773216 77.862221 61.878510 165.399200 102.900848
[L_rear_hand03]
8 104.552910 9.721220 -10.420293 -173.099182 -23.740307 -117.327896 105.519653
9 104.552910 9.721220 -10.420293 -173.099182 -23.740307 -117.327896 105.519653
